<svg width="81" height="81" viewBox="0 0 81 81" fill="none" xmlns="http://www.w3.org/2000/svg">
<path fill-rule="evenodd" clip-rule="evenodd" d="M12.1422 0.243665C10.0433 0.721313 8.98303 1.12889 7.41485 2.06112C1.49548 5.57961 -1.35479 12.8035 0.624383 19.2712C1.43142 21.9089 2.45005 23.5696 4.55135 25.6737C6.73356 27.8588 8.49923 28.8776 11.3834 29.6156C13.1739 30.0738 16.1619 30.1766 17.9021 29.8401C18.4305 29.738 18.89 29.6812 18.9231 29.7139C18.956 29.7466 18.6519 30.2763 18.2471 30.8913C17.2778 32.364 16.7326 34.3851 16.907 35.8588C17.2232 38.5288 16.6437 37.8869 37.8019 59.007C59.24 80.4063 57.9773 79.2804 61.8838 80.486C63.9522 81.1243 67.6665 81.1762 69.7834 80.5963C75.0738 79.1471 79.1481 75.0706 80.5965 69.7774C81.1761 67.6594 81.1242 63.9431 80.4863 61.8735C79.2813 57.965 80.4067 59.2283 59.0188 37.7788C37.9099 16.6093 38.5515 17.1891 35.8829 16.8727C34.41 16.6982 32.39 17.2438 30.9181 18.2136C30.3035 18.6186 29.774 18.9228 29.7413 18.8899C29.7086 18.8568 29.7654 18.3971 29.8675 17.8684C30.1576 16.3666 30.0972 13.1968 29.7505 11.7256C28.4885 6.36936 24.5824 2.20553 19.2899 0.57413C17.3235 -0.032116 14.0238 -0.184638 12.1422 0.243665ZM17.3045 4.43291C19.2692 4.84285 21.0891 5.85261 22.6227 7.3834C24.8815 9.63855 25.8049 11.9072 25.7973 15.1836C25.7783 23.3165 17.312 28.3004 9.89704 24.5435C7.44197 23.2996 5.06653 20.1137 4.47385 17.2705C2.88816 9.66269 9.70083 2.84638 17.3045 4.43291ZM36.4321 21.4817C36.8676 21.7069 37.6061 22.2858 38.0728 22.7683L38.9217 23.6459L31.2986 31.2731L23.6752 38.9003L22.7164 37.9587C22.1888 37.4406 21.6105 36.7073 21.4309 36.3288C20.5216 34.4115 21.2648 33.2561 27.2732 27.2445C33.3768 21.1376 34.4537 20.46 36.4321 21.4817ZM57.9658 42.7014C73.8342 58.6041 75.118 59.9446 75.7143 61.2327C77.2282 64.5032 77.2015 67.6134 75.6319 70.8151C73.7255 74.7038 69.547 77.085 65.1926 76.7642C63.4389 76.6349 61.5981 76.033 60.2082 75.1338C59.6618 74.7805 51.6254 66.8942 42.3491 57.6087L25.4832 40.7261L33.0606 33.1422C37.2282 28.9713 40.6878 25.5586 40.7489 25.5586C40.8099 25.5586 48.5575 33.273 57.9658 42.7014ZM38.1851 36.2657C36.485 36.9442 35.6261 38.9178 36.2736 40.6581C36.5294 41.3451 44.1846 49.1402 45.0597 49.6049C45.377 49.7732 46.0363 49.911 46.5252 49.911C48.9555 49.911 50.5984 47.3933 49.631 45.1511C49.2559 44.2819 41.487 36.5597 40.6797 36.2536C39.9455 35.9754 38.9004 35.9806 38.1851 36.2657Z" fill="#1C1C1C"/>
</svg>
