<svg width="89" height="89" viewBox="0 0 89 89" fill="none" xmlns="http://www.w3.org/2000/svg">
<path d="M88.9985 47.5263L88.9964 37.2881C88.9964 37.2779 88.9964 37.2671 88.9964 37.2569C88.9211 31.0493 86.4467 25.2254 82.0297 20.8587C77.6087 16.4872 71.7501 14.0801 65.5324 14.0801C60.2076 14.0801 54.992 15.9134 50.8473 19.2419C50.3462 19.6446 49.858 19.8164 49.215 19.8164H39.7821C39.1391 19.8164 38.6509 19.6446 38.1498 19.2419C34.0051 15.9134 28.7902 14.0801 23.4647 14.0801C17.2477 14.0801 11.3884 16.4872 6.96737 20.8587C2.55106 25.2254 0.0767286 31.0493 0.000679015 37.2569V37.2881L0 63.4485C0 66.46 1.17673 69.2962 3.31427 71.4337C5.48236 73.6018 8.28262 74.748 11.4115 74.748C15.1359 74.748 18.277 73.2155 20.4961 70.3161L30.5889 57.1296C32.1249 55.1225 34.2733 54.0618 36.8006 54.0618H52.1999C54.7272 54.0618 56.875 55.1225 58.4116 57.1296L68.5038 70.3161C70.7228 73.2155 73.8646 74.748 77.589 74.748C80.7179 74.748 83.5174 73.6018 85.6855 71.4337C87.8231 69.2962 88.9998 66.4606 88.9998 63.4485C88.9998 56.9646 88.9991 52.4858 88.9985 47.5263ZM81.9978 67.746C80.8123 68.9316 79.3293 69.5325 77.589 69.5325C75.4915 69.5325 73.8741 68.7523 72.6451 67.1464L62.5529 53.96C60.029 50.6627 56.3521 48.8463 52.1999 48.8463H36.8006C32.6477 48.8463 28.9715 50.6627 26.4469 53.96L16.3547 67.1464C15.1257 68.7523 13.509 69.5325 11.4115 69.5325C9.67121 69.5325 8.18756 68.9316 7.002 67.746C5.84971 66.5937 5.21483 65.0673 5.21483 63.4485L5.21551 37.3044C5.34588 27.3732 13.5287 19.2956 23.4647 19.2956C27.6665 19.2956 31.6156 20.6828 34.8837 23.3079C36.3083 24.452 37.9562 25.0319 39.7821 25.0319H49.215C51.0409 25.0319 52.6888 24.452 54.1127 23.3079C57.3815 20.6828 61.3306 19.2956 65.5324 19.2956C75.4684 19.2956 83.6512 27.3732 83.7816 37.3051L83.7829 47.5277C83.7836 52.4865 83.785 56.9653 83.785 63.4492C83.785 65.0673 83.1501 66.5937 81.9978 67.746Z" fill="#1C1C1C"/>
<path d="M65.5322 34.9399C66.9683 34.9399 68.1396 33.7686 68.1396 32.3325C68.1396 30.8964 66.9683 29.7251 65.5322 29.7251C64.0961 29.7251 62.9248 30.8964 62.9248 32.3325C62.9248 33.7686 64.0961 34.9399 65.5322 34.9399Z" fill="#1C1C1C"/>
<path d="M73.3545 37.5474C73.3545 38.9876 72.1873 40.1548 70.7471 40.1548C69.3069 40.1548 68.1396 38.9876 68.1396 37.5474C68.1396 36.1072 69.3069 34.9399 70.7471 34.9399C72.1873 34.9399 73.3545 36.1072 73.3545 37.5474Z" fill="#1C1C1C"/>
<path d="M68.1396 42.7622C68.1396 44.2024 66.9724 45.3696 65.5322 45.3696C64.092 45.3696 62.9248 44.2024 62.9248 42.7622C62.9248 41.322 64.092 40.1548 65.5322 40.1548C66.9724 40.1548 68.1396 41.322 68.1396 42.7622Z" fill="#1C1C1C"/>
<path d="M62.9248 37.5474C62.9248 38.9876 61.7576 40.1548 60.3174 40.1548C58.8772 40.1548 57.71 38.9876 57.71 37.5474C57.71 36.1072 58.8772 34.9399 60.3174 34.9399C61.7576 34.9399 62.9248 36.1072 62.9248 37.5474Z" fill="#1C1C1C"/>
<path d="M23.4648 34.9399C24.905 34.9399 26.0723 33.7727 26.0723 32.3325V28.856C26.0723 27.4158 24.905 26.2485 23.4648 26.2485C22.0253 26.2485 20.8574 27.4158 20.8574 28.856V32.3325C20.8574 33.7727 22.0253 34.9399 23.4648 34.9399Z" fill="#1C1C1C"/>
<path d="M32.1569 34.9399H28.6804C27.2402 34.9399 26.0723 36.1072 26.0723 37.5474C26.0723 38.9876 27.2402 40.1548 28.6804 40.1548H32.1569C33.5964 40.1548 34.7644 38.9876 34.7644 37.5474C34.7644 36.1072 33.5964 34.9399 32.1569 34.9399Z" fill="#1C1C1C"/>
<path d="M23.4648 40.1548C22.0253 40.1548 20.8574 41.3227 20.8574 42.7622V46.2388C20.8574 47.679 22.0253 48.8469 23.4648 48.8469C24.905 48.8469 26.0723 47.679 26.0723 46.2388V42.7622C26.0723 41.3227 24.905 40.1548 23.4648 40.1548Z" fill="#1C1C1C"/>
<path d="M18.25 34.9399H14.7734C13.3332 34.9399 12.166 36.1078 12.166 37.5474C12.166 38.9876 13.3332 40.1548 14.7734 40.1548H18.25C19.6902 40.1548 20.8574 38.9876 20.8574 37.5474C20.8574 36.1078 19.6902 34.9399 18.25 34.9399Z" fill="#1C1C1C"/>
</svg>
