<svg width="268" height="214" viewBox="0 0 268 214" fill="none" xmlns="http://www.w3.org/2000/svg">
<g clip-path="url(#clip0_125_1418)">
<path d="M44.2702 89.8635V107.105H68.1808C67.6986 109.853 66.6661 112.476 65.1451 114.818C63.6241 117.159 61.6458 119.17 59.3284 120.73C55.3336 123.468 50.2332 125.027 44.2534 125.027C32.6959 125.027 22.9265 117.123 19.4216 106.545C17.5875 100.979 17.5875 94.9735 19.4216 89.4079V89.4079C22.9265 78.7664 32.6959 70.8626 44.2534 70.8626C47.3862 70.8044 50.4993 71.3686 53.4115 72.5224C56.3238 73.6762 58.9771 75.3967 61.217 77.5836L73.8967 64.7854C65.9109 57.212 55.2852 53.0387 44.2702 53.1491C36.0301 53.1807 27.9629 55.5108 20.9794 59.8764C13.9958 64.242 8.374 70.4693 4.74856 77.8552C1.62568 84.0971 0 90.9784 0 97.9554C0 104.932 1.62568 111.814 4.74856 118.055V118.118C8.37499 125.5 13.9983 131.721 20.9826 136.079C27.9669 140.437 36.0335 142.758 44.2702 142.778C56.192 142.778 66.2755 138.795 73.5827 131.949C81.9577 124.17 86.7356 112.659 86.7356 98.9668C86.7405 95.9175 86.4954 92.8729 86.0028 89.8635H44.2702ZM207.336 88.1916C203.094 84.2711 197.315 82.2815 190.004 82.2815C180.598 82.2815 173.53 85.7674 168.857 92.6722L177.588 98.2145C180.784 93.4775 185.147 91.109 190.678 91.109C194.199 91.1176 197.592 92.4262 200.204 94.783C201.477 95.8862 202.498 97.2493 203.198 98.7801C203.898 100.311 204.261 101.974 204.262 103.656V105.959C200.451 103.84 195.657 102.72 189.756 102.72C182.872 102.72 177.341 104.342 173.22 107.64C169.1 110.937 167.014 115.293 167.014 120.831C166.95 123.306 167.44 125.764 168.45 128.025C169.46 130.287 170.964 132.294 172.852 133.901C176.725 137.387 181.645 139.129 187.42 139.129C194.241 139.129 199.652 136.078 203.751 129.98H204.17V137.387H213.638V104.492C213.667 97.575 211.578 92.0954 207.336 88.1916ZM199.283 125.516C197.831 126.991 196.099 128.163 194.189 128.964C192.279 129.764 190.229 130.178 188.157 130.181C185.372 130.227 182.658 129.303 180.481 127.568C179.465 126.809 178.642 125.822 178.077 124.688C177.512 123.553 177.221 122.302 177.227 121.036C177.227 118.11 178.576 115.681 181.222 113.755C183.869 111.828 187.307 110.829 191.302 110.829C196.812 110.762 201.126 112.016 204.199 114.499C204.199 118.733 202.541 122.402 199.283 125.516ZM160.067 66.1647C157.845 63.9473 155.197 62.2009 152.282 61.0302C149.367 59.8594 146.245 59.2886 143.104 59.3518H116.86V137.403H126.756V105.788H143.087C149.787 105.788 155.44 103.548 160.05 99.1298C160.419 98.7579 160.787 98.3817 161.16 98.0097C165.195 93.6143 167.341 87.814 167.137 81.8559C166.932 75.8978 164.394 70.2576 160.067 66.1479V66.1647ZM153.124 92.1748C151.877 93.5039 150.36 94.5522 148.675 95.2499C146.989 95.9475 145.174 96.2785 143.351 96.2208H126.756V68.965H143.351C146.892 68.9522 150.294 70.3392 152.814 72.8229C155.378 75.3711 156.845 78.8169 156.902 82.4277C156.96 86.0385 155.605 89.5294 153.124 92.1581V92.1748ZM257.242 84.0119L241.941 122.34H241.753L226.083 84.0119H215.325L237.012 133.98L224.722 160.864H234.919L268 84.0119H257.242Z" fill="#1C1C1C"/>
</g>
<defs>
<clipPath id="clip0_125_1418">
<rect width="268" height="214" fill="white"/>
</clipPath>
</defs>
</svg>
