<svg width="98" height="97" viewBox="0 0 98 97" fill="none" xmlns="http://www.w3.org/2000/svg">
<path d="M38.4863 44.4033H38.5273" stroke="#1C1C1C" stroke-width="6" stroke-linecap="round"/>
<path d="M58.7422 44.4033H58.7831" stroke="#1C1C1C" stroke-width="6" stroke-linecap="round"/>
<path d="M38.4863 60.5503C39.8065 61.8929 41.3823 62.9595 43.1214 63.6876C44.8605 64.4158 46.7279 64.7909 48.6143 64.7909C50.5007 64.7909 52.3681 64.4158 54.1072 63.6876C55.8463 62.9595 57.4221 61.8929 58.7423 60.5503" stroke="#1C1C1C" stroke-width="6" stroke-linecap="round"/>
<path d="M28.3587 20.1832H32.4099V12.1099H64.8194V20.1832H68.8706C72.094 20.1832 75.1853 21.4591 77.4645 23.7302C79.7437 26.0012 81.0242 29.0815 81.0242 32.2932V68.6233C81.0242 71.8351 79.7437 74.9153 77.4645 77.1864C75.1853 79.4575 72.094 80.7333 68.8706 80.7333V84.77H28.3587V80.7333C25.1353 80.7333 22.044 79.4575 19.7648 77.1864C17.4855 74.9153 16.2051 71.8351 16.2051 68.6233V32.2932C16.2051 29.0815 17.4855 26.0012 19.7648 23.7302C22.044 21.4591 25.1353 20.1832 28.3587 20.1832" stroke="#1C1C1C" stroke-width="6" stroke-linecap="round"/>
</svg>
