<svg width="128" height="128" viewBox="0 0 128 128" fill="none" xmlns="http://www.w3.org/2000/svg">
<path d="M101.333 15.9999H79.04C76.8 9.81325 70.9333 5.33325 64 5.33325C57.0667 5.33325 51.2 9.81325 48.96 15.9999H26.6667C20.8 15.9999 16 20.7999 16 26.6666V101.333C16 107.2 20.8 112 26.6667 112H101.333C107.2 112 112 107.2 112 101.333V26.6666C112 20.7999 107.2 15.9999 101.333 15.9999ZM64 15.9999C66.9333 15.9999 69.3333 18.3999 69.3333 21.3333C69.3333 24.2666 66.9333 26.6666 64 26.6666C61.0667 26.6666 58.6667 24.2666 58.6667 21.3333C58.6667 18.3999 61.0667 15.9999 64 15.9999ZM53.3333 90.6666L32 69.3332L39.52 61.8132L53.3333 75.5732L88.48 40.4266L96 47.9999L53.3333 90.6666Z" fill="black"/>
</svg>
