<svg width="240" height="214" viewBox="0 0 240 214" fill="none" xmlns="http://www.w3.org/2000/svg">
<g clip-path="url(#clip0_125_1420)">
<path d="M77.5215 107.92C77.5215 113.019 73.4852 116.906 68.3671 116.906C64.5388 116.906 61.7093 114.732 61.7093 110.636C61.7093 105.537 65.6623 101.441 70.7389 101.441C74.6087 101.441 77.5215 103.823 77.5215 107.92ZM33.4969 87.648H31.5412C30.9171 87.648 30.2929 88.066 30.2097 88.7766L28.4204 99.9363L31.8325 99.8109C36.4097 99.8109 39.9467 99.184 40.7789 93.8758C41.7359 88.275 38.199 87.648 33.4969 87.648V87.648ZM151.673 87.648H149.8C149.051 87.648 148.552 88.066 148.468 88.7766L146.721 99.9363L150.05 99.8109C155.459 99.8109 159.204 98.557 159.204 92.2875C159.163 87.857 155.209 87.648 151.673 87.648V87.648ZM239.68 33.4375V180.562C239.68 191.639 230.734 200.625 219.707 200.625H19.9733C8.94639 200.625 0 191.639 0 180.562V33.4375C0 22.3613 8.94639 13.375 19.9733 13.375H219.707C230.734 13.375 239.68 22.3613 239.68 33.4375ZM53.3871 90.0305C53.3871 81.2531 46.6461 78.3273 38.948 78.3273H22.3036C21.2633 78.3273 20.223 79.1633 20.1398 80.2918L13.3156 122.966C13.1907 123.802 13.8149 124.638 14.6471 124.638H22.5532C23.6767 124.638 24.717 123.426 24.8418 122.256L26.7143 111.138C27.1304 108.129 32.207 109.173 34.2043 109.173C46.1051 109.173 53.3871 102.068 53.3871 90.0305V90.0305ZM88.4236 93.7086H80.5175C78.9363 93.7086 78.8531 96.0074 78.7698 97.1359C76.3564 93.5832 72.8611 92.9562 68.908 92.9562C58.7133 92.9562 50.932 101.943 50.932 111.848C50.932 119.999 56.0086 125.307 64.1227 125.307C67.8677 125.307 72.5282 123.259 75.1497 120.333C74.9416 120.96 74.7336 122.298 74.7336 122.925C74.7336 123.886 75.1497 124.596 76.0651 124.596H83.2222C84.3457 124.596 85.3028 123.384 85.5108 122.214L89.7552 95.3387C89.88 94.5445 89.2558 93.7086 88.4236 93.7086ZM105.276 134.628L131.782 95.9238C131.99 95.7148 131.99 95.5059 131.99 95.2133C131.99 94.5027 131.366 93.7504 130.659 93.7504H122.67C121.962 93.7504 121.213 94.1684 120.797 94.7953L109.77 111.096L105.193 95.4223C104.86 94.5027 103.945 93.7504 102.904 93.7504H95.123C94.4156 93.7504 93.7914 94.5027 93.7914 95.2133C93.7914 95.7148 101.906 118.954 102.613 121.169C101.49 122.757 94.0827 133.123 94.0827 134.377C94.0827 135.129 94.7069 135.714 95.4143 135.714H103.404C104.153 135.673 104.86 135.255 105.276 134.628V134.628ZM171.563 90.0305C171.563 81.2531 164.822 78.3273 157.124 78.3273H140.604C139.48 78.3273 138.44 79.1633 138.315 80.2918L131.574 122.925C131.491 123.761 132.115 124.596 132.906 124.596H141.436C142.268 124.596 142.893 123.97 143.101 123.259L144.973 111.138C145.389 108.129 150.466 109.173 152.463 109.173C164.281 109.173 171.563 102.068 171.563 90.0305ZM206.599 93.7086H198.693C197.112 93.7086 197.029 96.0074 196.904 97.1359C194.615 93.5832 191.078 92.9562 187.042 92.9562C176.847 92.9562 169.066 101.943 169.066 111.848C169.066 119.999 174.143 125.307 182.257 125.307C186.127 125.307 190.787 123.259 193.284 120.333C193.159 120.96 192.868 122.298 192.868 122.925C192.868 123.886 193.284 124.596 194.199 124.596H201.398C202.521 124.596 203.478 123.384 203.686 122.214L207.931 95.3387C208.056 94.5445 207.431 93.7086 206.599 93.7086V93.7086ZM226.364 79.7902C226.364 78.9543 225.74 78.3273 225.033 78.3273H217.335C216.711 78.3273 216.086 78.8289 216.003 79.4559L209.262 122.925L209.137 123.134C209.137 123.886 209.762 124.596 210.594 124.596H217.46C218.5 124.596 219.54 123.384 219.623 122.214L226.364 79.9156V79.7902V79.7902ZM188.914 101.441C183.838 101.441 179.885 105.495 179.885 110.636C179.885 114.691 182.798 116.906 186.626 116.906C191.619 116.906 195.655 113.061 195.655 107.92C195.697 103.823 192.784 101.441 188.914 101.441Z" fill="#1C1C1C"/>
</g>
<defs>
<clipPath id="clip0_125_1420">
<rect width="239.68" height="214" fill="white"/>
</clipPath>
</defs>
</svg>
