<svg width="81" height="81" fill="none" xmlns="http://www.w3.org/2000/svg"><path fill-rule="evenodd" clip-rule="evenodd" d="M12.142.244c-2.099.477-3.159.885-4.727 1.817-5.92 3.519-8.77 10.742-6.79 17.21.806 2.638 1.825 4.299 3.926 6.403 2.183 2.185 3.948 3.204 6.832 3.942 1.79.458 4.779.56 6.52.224.527-.102.987-.159 1.02-.126.033.033-.271.562-.676 1.177-.97 1.473-1.514 3.494-1.34 4.968.316 2.67-.263 2.028 20.895 23.148 21.438 21.4 20.175 20.273 24.082 21.479 2.068.638 5.782.69 7.9.11a15.37 15.37 0 0 0 10.813-10.819c.58-2.118.527-5.834-.11-7.904-1.206-3.908-.08-2.645-21.468-24.094-21.11-21.17-20.468-20.59-23.136-20.906-1.473-.175-3.493.37-4.965 1.34-.614.406-1.144.71-1.177.677-.032-.033.024-.493.127-1.022.29-1.501.23-4.671-.117-6.142-1.264-5.357-5.17-9.52-10.461-11.152-1.966-.606-5.266-.759-7.148-.33Zm5.163 4.189c1.964.41 3.784 1.42 5.318 2.95 2.258 2.256 3.182 4.524 3.174 7.8-.019 8.134-8.485 13.117-15.9 9.36-2.455-1.243-4.83-4.43-5.423-7.273C2.888 9.663 9.7 2.846 17.304 4.433Zm19.127 17.049c.436.225 1.174.804 1.64 1.286l.85.878-7.623 7.627-7.624 7.627-.959-.941c-.527-.518-1.106-1.252-1.285-1.63-.91-1.918-.166-3.073 5.842-9.085 6.104-6.106 7.18-6.784 9.16-5.762Zm21.534 21.22c15.868 15.902 17.152 17.243 17.748 18.53 1.514 3.271 1.487 6.381-.082 9.583-1.907 3.889-6.085 6.27-10.44 5.95-1.753-.13-3.594-.732-4.984-1.631-.546-.353-8.583-8.24-17.859-17.525L25.483 40.726l7.578-7.584c4.167-4.17 7.627-7.583 7.688-7.583.06 0 7.808 7.714 17.217 17.142Zm-19.78-6.436c-1.701.678-2.56 2.652-1.912 4.392.255.687 7.91 8.482 8.786 8.947.317.168.976.306 1.465.306 2.43 0 4.073-2.518 3.106-4.76-.375-.87-8.144-8.591-8.951-8.897-.734-.279-1.78-.273-2.495.012Z" fill="#1C1C1C"/></svg>