<svg width="89" height="89" fill="none" xmlns="http://www.w3.org/2000/svg"><path d="m88.999 47.526-.003-10.238v-.031a23.322 23.322 0 0 0-6.966-16.398 23.322 23.322 0 0 0-16.498-6.779 23.532 23.532 0 0 0-14.685 5.162c-.5.403-.989.574-1.632.574h-9.433a2.418 2.418 0 0 1-1.632-.574 23.53 23.53 0 0 0-14.685-5.162 23.323 23.323 0 0 0-16.498 6.78A23.328 23.328 0 0 0 .001 37.257v.031L0 63.448c0 3.012 1.177 5.848 3.314 7.986 2.168 2.168 4.969 3.314 8.098 3.314 3.724 0 6.865-1.532 9.084-4.432L30.59 57.13c1.536-2.008 3.684-3.068 6.212-3.068H52.2c2.527 0 4.675 1.06 6.212 3.068l10.092 13.186c2.219 2.9 5.36 4.432 9.085 4.432 3.129 0 5.928-1.146 8.097-3.314A11.221 11.221 0 0 0 89 63.449l-.001-15.923Zm-7.001 20.22c-1.186 1.186-2.669 1.787-4.409 1.787-2.097 0-3.715-.78-4.944-2.387L62.553 53.96c-2.524-3.297-6.2-5.114-10.353-5.114H36.8c-4.152 0-7.828 1.817-10.353 5.114L16.355 67.146c-1.23 1.606-2.846 2.386-4.944 2.386-1.74 0-3.223-.6-4.409-1.786a6.042 6.042 0 0 1-1.787-4.297V37.303c.13-9.93 8.314-18.008 18.25-18.008 4.201 0 8.15 1.387 11.419 4.012a7.641 7.641 0 0 0 4.898 1.724h9.433a7.64 7.64 0 0 0 4.898-1.724c3.269-2.625 7.218-4.012 11.42-4.012 9.935 0 18.118 8.077 18.249 18.01v10.222c.002 4.959.003 9.437.003 15.921a6.041 6.041 0 0 1-1.787 4.297Z" fill="#1C1C1C"/><path d="M65.532 34.94a2.612 2.612 0 0 0 2.608-2.607 2.612 2.612 0 0 0-2.608-2.608 2.612 2.612 0 0 0-2.607 2.608 2.612 2.612 0 0 0 2.607 2.607Zm7.823 2.607a2.607 2.607 0 1 1-5.215 0 2.607 2.607 0 0 1 5.215 0Zm-5.215 5.215a2.607 2.607 0 1 1-5.215 0 2.607 2.607 0 0 1 5.215 0Zm-5.215-5.215a2.607 2.607 0 1 1-5.215 0 2.607 2.607 0 0 1 5.215 0Zm-39.46-2.607a2.607 2.607 0 0 0 2.607-2.607v-3.477a2.607 2.607 0 1 0-5.215 0v3.477a2.608 2.608 0 0 0 2.608 2.607Zm8.692 0H28.68a2.608 2.608 0 1 0 0 5.215h3.477a2.608 2.608 0 0 0 0-5.215Zm-8.692 5.215a2.608 2.608 0 0 0-2.608 2.607v3.477a2.608 2.608 0 0 0 5.215 0v-3.477a2.608 2.608 0 0 0-2.607-2.607ZM18.25 34.94h-3.477a2.608 2.608 0 0 0 0 5.215h3.477a2.607 2.607 0 1 0 0-5.215Z" fill="#1C1C1C"/></svg>