<svg width="268" height="214" fill="none" xmlns="http://www.w3.org/2000/svg"><g clip-path="url(#a)"><path d="M44.27 89.864v17.241h23.91a20.743 20.743 0 0 1-8.852 13.625c-3.994 2.738-9.095 4.297-15.075 4.297-11.557 0-21.326-7.904-24.831-18.482a27.375 27.375 0 0 1 0-17.137c3.505-10.642 13.274-18.545 24.831-18.545a23.67 23.67 0 0 1 9.158 1.66 23.634 23.634 0 0 1 7.806 5.06l12.68-12.798A42.437 42.437 0 0 0 44.27 53.15a44.26 44.26 0 0 0-23.29 6.727 44.145 44.145 0 0 0-16.231 17.98 44.922 44.922 0 0 0 0 40.199v.063a44.084 44.084 0 0 0 16.234 17.961 44.196 44.196 0 0 0 23.287 6.699c11.922 0 22.005-3.983 29.313-10.829 8.375-7.779 13.153-19.29 13.153-32.982.004-3.05-.24-6.094-.733-9.103H44.27Zm163.066-1.672c-4.242-3.92-10.021-5.91-17.332-5.91-9.406 0-16.474 3.485-21.147 10.39l8.731 5.543c3.196-4.737 7.559-7.106 13.09-7.106a14.272 14.272 0 0 1 9.526 3.674 11.762 11.762 0 0 1 4.058 8.873v2.303c-3.811-2.119-8.605-3.239-14.506-3.239-6.884 0-12.415 1.622-16.536 4.92-4.12 3.297-6.206 7.653-6.206 13.191a16.586 16.586 0 0 0 5.838 13.07c3.873 3.486 8.793 5.228 14.568 5.228 6.821 0 12.232-3.051 16.331-9.149h.419v7.407h9.468v-32.895c.029-6.917-2.06-12.397-6.302-16.3Zm-8.053 37.324a15.63 15.63 0 0 1-11.126 4.665 11.999 11.999 0 0 1-7.676-2.613 8.108 8.108 0 0 1-3.254-6.532c0-2.926 1.349-5.355 3.995-7.281 2.647-1.927 6.085-2.926 10.08-2.926 5.51-.067 9.824 1.187 12.897 3.67 0 4.234-1.658 7.903-4.916 11.017Zm-39.216-59.351a23.366 23.366 0 0 0-16.963-6.813H116.86v78.051h9.896v-31.615h16.331c6.7 0 12.353-2.24 16.963-6.658.369-.372.737-.748 1.11-1.12a22.736 22.736 0 0 0 5.977-16.154 22.742 22.742 0 0 0-7.07-15.708v.017Zm-6.943 26.01a12.832 12.832 0 0 1-9.773 4.046h-16.595V68.965h16.595a13.412 13.412 0 0 1 9.463 3.858 13.85 13.85 0 0 1 .31 19.335v.017Zm104.118-8.163-15.301 38.328h-.188l-15.67-38.328h-10.758l21.687 49.968-12.29 26.884h10.197L268 84.012h-10.758Z" fill="#1C1C1C"/></g><defs><clipPath id="a"><path fill="#fff" d="M0 0h268v214H0z"/></clipPath></defs></svg>