<svg width="98" height="97" fill="none" xmlns="http://www.w3.org/2000/svg"><path d="M38.486 44.403h.041m20.215 0h.041M38.486 60.55a14.18 14.18 0 0 0 4.635 3.138 14.222 14.222 0 0 0 15.621-3.138" stroke="#1C1C1C" stroke-width="6" stroke-linecap="round"/><path d="M28.359 20.183h4.05V12.11h32.41v8.073h4.052c3.223 0 6.314 1.276 8.594 3.547a12.088 12.088 0 0 1 3.56 8.563v36.33c0 3.212-1.281 6.292-3.56 8.563a12.175 12.175 0 0 1-8.594 3.547v4.037H28.359v-4.037a12.175 12.175 0 0 1-8.594-3.547 12.088 12.088 0 0 1-3.56-8.563v-36.33c0-3.212 1.28-6.292 3.56-8.563a12.176 12.176 0 0 1 8.594-3.547" stroke="#1C1C1C" stroke-width="6" stroke-linecap="round"/></svg>