<svg width="128" height="128" fill="none" xmlns="http://www.w3.org/2000/svg"><path d="M101.333 16H79.04C76.8 9.813 70.933 5.333 64 5.333S51.2 9.813 48.96 16H26.667C20.8 16 16 20.8 16 26.667v74.666C16 107.2 20.8 112 26.667 112h74.666C107.2 112 112 107.2 112 101.333V26.667C112 20.8 107.2 16 101.333 16ZM64 16c2.933 0 5.333 2.4 5.333 5.333 0 2.934-2.4 5.334-5.333 5.334-2.933 0-5.333-2.4-5.333-5.334C58.667 18.4 61.067 16 64 16ZM53.333 90.667 32 69.333l7.52-7.52 13.813 13.76L88.48 40.427 96 48 53.333 90.667Z" fill="#000"/></svg>