<svg width="240" height="214" fill="none" xmlns="http://www.w3.org/2000/svg"><g clip-path="url(#a)"><path d="M77.522 107.92c0 5.099-4.037 8.986-9.155 8.986-3.828 0-6.658-2.174-6.658-6.27 0-5.099 3.953-9.195 9.03-9.195 3.87 0 6.782 2.382 6.782 6.479ZM33.497 87.648H31.54c-.624 0-1.248.418-1.331 1.129l-1.79 11.16 3.412-.126c4.578 0 8.115-.627 8.947-5.935.957-5.601-2.58-6.228-7.282-6.228Zm118.176 0H149.8c-.749 0-1.248.418-1.332 1.129l-1.747 11.16 3.329-.126c5.409 0 9.154-1.254 9.154-7.524-.041-4.43-3.995-4.639-7.531-4.639Zm88.007-54.21v147.124c0 11.077-8.946 20.063-19.973 20.063H19.973C8.946 200.625 0 191.639 0 180.562V33.437c0-11.076 8.946-20.062 19.973-20.062h199.734c11.027 0 19.973 8.986 19.973 20.063ZM53.387 90.03c0-8.778-6.74-11.704-14.439-11.704H22.304c-1.04 0-2.081.836-2.164 1.965l-6.824 42.674c-.125.836.499 1.672 1.331 1.672h7.906c1.124 0 2.164-1.212 2.289-2.382l1.872-11.118c.416-3.009 5.493-1.965 7.49-1.965 11.901 0 19.183-7.105 19.183-19.142Zm35.037 3.678h-7.907c-1.58 0-1.664 2.298-1.747 3.427-2.414-3.553-5.909-4.18-9.862-4.18-10.195 0-17.976 8.987-17.976 18.892 0 8.151 5.077 13.459 13.19 13.459 3.746 0 8.406-2.048 11.028-4.974-.208.627-.416 1.965-.416 2.592 0 .961.416 1.671 1.331 1.671h7.157c1.124 0 2.08-1.212 2.289-2.382l4.244-26.875c.125-.794-.5-1.63-1.331-1.63Zm16.852 40.919 26.506-38.704c.208-.21.208-.418.208-.71 0-.711-.624-1.464-1.331-1.464h-7.989c-.708 0-1.457.418-1.873 1.045l-11.027 16.301-4.577-15.674c-.333-.92-1.248-1.672-2.289-1.672h-7.781c-.707 0-1.332.753-1.332 1.463 0 .502 8.115 23.741 8.822 25.956-1.123 1.588-8.53 11.954-8.53 13.208 0 .752.624 1.337 1.331 1.337h7.99a2.443 2.443 0 0 0 1.872-1.086Zm66.287-44.597c0-8.778-6.741-11.704-14.439-11.704h-16.52c-1.124 0-2.164.836-2.289 1.965l-6.741 42.633c-.083.836.541 1.671 1.332 1.671h8.53c.832 0 1.457-.626 1.665-1.337l1.872-12.121c.416-3.009 5.493-1.965 7.49-1.965 11.818 0 19.1-7.105 19.1-19.142Zm35.036 3.678h-7.906c-1.581 0-1.664 2.298-1.789 3.427-2.289-3.553-5.826-4.18-9.862-4.18-10.195 0-17.976 8.987-17.976 18.892 0 8.151 5.077 13.459 13.191 13.459 3.87 0 8.53-2.048 11.027-4.974-.125.627-.416 1.965-.416 2.592 0 .961.416 1.671 1.331 1.671h7.199c1.123 0 2.08-1.212 2.288-2.382l4.245-26.875c.125-.794-.5-1.63-1.332-1.63Zm19.765-13.919c0-.836-.624-1.463-1.331-1.463h-7.698c-.624 0-1.249.502-1.332 1.129l-6.741 43.469-.125.209c0 .752.625 1.462 1.457 1.462h6.866c1.04 0 2.08-1.212 2.163-2.382l6.741-42.298v-.126Zm-37.45 21.651c-5.076 0-9.029 4.054-9.029 9.195 0 4.055 2.913 6.27 6.741 6.27 4.993 0 9.029-3.845 9.029-8.986.042-4.097-2.871-6.479-6.741-6.479Z" fill="#1C1C1C"/></g><defs><clipPath id="a"><path fill="#fff" d="M0 0h239.68v214H0z"/></clipPath></defs></svg>