<svg width="190" height="190" fill="none" xmlns="http://www.w3.org/2000/svg"><g filter="url(#a)"><rect x="18" y="18" width="150" height="150" rx="33" fill="#fff"/></g><path fill-rule="evenodd" clip-rule="evenodd" d="M106.821 72.802h19.852v32.923c0 8.107-1.101 14.574-2.976 19.389-1.875 4.815-4.871 8.595-8.941 11.322a23.528 23.528 0 0 1-7.709 3.348 43.695 43.695 0 0 1-8.926 1.215 33.545 33.545 0 0 1-12.817-2.431 31.887 31.887 0 0 1-10.532-6.996l12.055-14.445a12.374 12.374 0 0 0 4.35 4.116 11.46 11.46 0 0 0 5.57 1.371 8.931 8.931 0 0 0 4.579-.823 8.702 8.702 0 0 0 3.205-2.658c.71-1.015 1.244-2.562 1.602-4.64.352-2.074.686-6.005.686-11.783l.002-29.908Z" fill="#000"/><path fill-rule="evenodd" clip-rule="evenodd" d="M105.602 51.098a10.776 10.776 0 0 1 3.205-7.83c2.134-2.179 4.779-3.268 7.935-3.268a11.218 11.218 0 0 1 7.858 3.268 11.142 11.142 0 0 1 3.282 7.83c0 3.144-1.094 5.78-3.282 7.907a10.88 10.88 0 0 1-7.858 3.194c-3.156 0-5.801-1.065-7.935-3.194-2.135-2.13-3.203-4.765-3.205-7.907Z" fill="#00C8E5"/><path fill-rule="evenodd" clip-rule="evenodd" d="M50.13 106.669a10.766 10.766 0 0 1 3.205-7.83c2.137-2.177 4.783-3.265 7.938-3.265a11.226 11.226 0 0 1 7.858 3.27 11.145 11.145 0 0 1 3.282 7.83c0 3.142-1.094 5.778-3.282 7.907a10.881 10.881 0 0 1-7.858 3.194c-3.155 0-5.8-1.065-7.935-3.194s-3.204-4.766-3.208-7.912Z" fill="#FE5E55"/><defs><filter id="a" x="0" y="0" width="190" height="190" filterUnits="userSpaceOnUse" color-interpolation-filters="sRGB"><feFlood flood-opacity="0" result="BackgroundImageFix"/><feColorMatrix in="SourceAlpha" values="0 0 0 0 0 0 0 0 0 0 0 0 0 0 0 0 0 0 127 0" result="hardAlpha"/><feMorphology radius="1" operator="dilate" in="SourceAlpha" result="effect1_dropShadow_125_544"/><feOffset dx="2" dy="2"/><feGaussianBlur stdDeviation="9.5"/><feColorMatrix values="0 0 0 0 0 0 0 0 0 0 0 0 0 0 0 0 0 0 0.4 0"/><feBlend in2="BackgroundImageFix" result="effect1_dropShadow_125_544"/><feBlend in="SourceGraphic" in2="effect1_dropShadow_125_544" result="shape"/></filter></defs></svg>