<svg width="190" height="190" viewBox="0 0 190 190" fill="none" xmlns="http://www.w3.org/2000/svg">
<g filter="url(#filter0_d_125_544)">
<rect x="18" y="18" width="150" height="150" rx="33" fill="white"/>
</g>
<path fill-rule="evenodd" clip-rule="evenodd" d="M106.821 72.8022H126.673V105.725C126.673 113.832 125.572 120.299 123.697 125.114C121.822 129.929 118.826 133.709 114.756 136.436C112.41 138.005 109.798 139.139 107.047 139.784C104.122 140.495 101.13 140.903 98.1208 140.999C93.7298 141.035 89.3746 140.209 85.304 138.568C81.3596 136.961 77.7786 134.582 74.7725 131.572L86.8266 117.127C87.9165 118.833 89.4104 120.247 91.1769 121.243C92.8863 122.164 94.8034 122.637 96.7469 122.614C98.3194 122.749 99.8995 122.465 101.326 121.791C102.594 121.177 103.694 120.265 104.531 119.133C105.241 118.118 105.775 116.571 106.133 114.493C106.485 112.419 106.819 108.488 106.819 102.71L106.821 72.8022Z" fill="black"/>
<path fill-rule="evenodd" clip-rule="evenodd" d="M105.602 51.0977C105.58 49.6449 105.853 48.2026 106.403 46.8571C106.954 45.5117 107.771 44.2908 108.807 43.2676C110.941 41.0892 113.586 40 116.742 40C119.691 40.0158 122.515 41.1901 124.6 43.2678C126.686 45.3455 127.865 48.1591 127.882 51.0977C127.882 54.2418 126.788 56.8775 124.6 59.0047C123.573 60.0359 122.347 60.8502 120.997 61.3989C119.647 61.9476 118.2 62.2194 116.742 62.1982C113.586 62.1982 110.941 61.1337 108.807 59.0047C106.672 56.8757 105.604 54.24 105.602 51.0977Z" fill="#00C8E5"/>
<path fill-rule="evenodd" clip-rule="evenodd" d="M50.1301 106.669C50.1082 105.216 50.3807 103.773 50.9314 102.428C51.4821 101.083 52.2996 99.8617 53.335 98.8386C55.4716 96.662 58.1176 95.5737 61.2729 95.5737C64.2221 95.591 67.0455 96.7661 69.1309 98.8441C71.2163 100.922 72.3956 103.735 72.4129 106.674C72.4129 109.816 71.3189 112.452 69.1309 114.581C68.1038 115.612 66.8785 116.427 65.5283 116.975C64.1782 117.524 62.7309 117.796 61.2729 117.775C58.1176 117.775 55.4725 116.71 53.3378 114.581C51.203 112.452 50.1338 109.815 50.1301 106.669Z" fill="#FE5E55"/>
<defs>
<filter id="filter0_d_125_544" x="0" y="0" width="190" height="190" filterUnits="userSpaceOnUse" color-interpolation-filters="sRGB">
<feFlood flood-opacity="0" result="BackgroundImageFix"/>
<feColorMatrix in="SourceAlpha" type="matrix" values="0 0 0 0 0 0 0 0 0 0 0 0 0 0 0 0 0 0 127 0" result="hardAlpha"/>
<feMorphology radius="1" operator="dilate" in="SourceAlpha" result="effect1_dropShadow_125_544"/>
<feOffset dx="2" dy="2"/>
<feGaussianBlur stdDeviation="9.5"/>
<feColorMatrix type="matrix" values="0 0 0 0 0 0 0 0 0 0 0 0 0 0 0 0 0 0 0.4 0"/>
<feBlend mode="normal" in2="BackgroundImageFix" result="effect1_dropShadow_125_544"/>
<feBlend mode="normal" in="SourceGraphic" in2="effect1_dropShadow_125_544" result="shape"/>
</filter>
</defs>
</svg>
